

<svg xmlns="http://www.w3.org/2000/svg" viewBox="0 0 400.83 98.44"><defs><style>.cls-1{fill:#fff;}.cls-2{fill:#cdd5d3;}</style></defs><g id="Calque_2" data-name="Calque 2"><g id="Calque_1-2" data-name="Calque 1"><path class="cls-1" d="M51.33,3.12c1.53,2.77,0,4.54-2.14,5.94a6,6,0,0,1-7.29-.24C40,7.4,38.62,5.62,40.35,3.12Z"/><path class="cls-2" d="M300.72,52.89c0,3,0,5.91,0,8.87a7,7,0,0,1-4.14,6.74c-2.68,1.25-4.92.22-6.56-1.8-1.34-1.64-2.48-1.09-3.88-.4a27.9,27.9,0,0,1-18.27,2.14A22.71,22.71,0,0,1,249.8,47.69c-.45-9.14.37-17.73,8-24.25,8.4-7.22,18-7.65,27.89-4.29,9,3,12.76,10.15,14.23,19.05A97.81,97.81,0,0,1,300.72,52.89Zm-12-6.27a57.26,57.26,0,0,0,0-6.42C287.19,26.56,274.93,24,267.05,29.48c-5.49,3.79-6.59,9.85-6.27,16.29.46,9.31,5.69,13.91,16.18,13.77C286.77,59.41,288.83,57.17,288.77,46.62Z"/><path class="cls-1" d="M66.16,42.1c0-6.08.14-12.17,0-18.25-.13-4.42,2.17-6.54,6.21-6.6q16.94-.24,33.89,0c4.07.07,6.16,2.38,6.11,6.74-.15,12.49-.12,25,0,37.48,0,3.81-1.67,6.23-5.37,6.3-4,.07-5.75-2.51-5.72-6.48.07-10.19-.08-20.39.08-30.58,0-3-.74-4.06-3.88-3.92-5.47.25-11,.25-16.44,0-3.22-.14-3.87,1.15-3.82,4,.14,9.53,0,19.07,0,28.61a17.89,17.89,0,0,1-.12,3.44c-.62,3.09-2.47,5.18-5.8,4.93-3.17-.24-5.14-2-5.12-5.48C66.19,55.58,66.17,48.84,66.16,42.1Z"/><path class="cls-1" d="M138.21,34.47c0,4.11-.15,8.23,0,12.33.35,7.44,4.59,11.45,12,11.63,8,.2,12.51-3.4,13-11,.43-7,.22-14.13.3-21.19,0-1.48,0-3,.13-4.43.33-3.18,2.1-5.36,5.36-5.44a5.21,5.21,0,0,1,5.7,5.57c0,10.17,1,20.4-.71,30.5C172.27,62.74,162,69,149.15,68c-15.76-1.25-22-8-22-23.77,0-7.07.1-14.14-.05-21.2-.08-4,1.64-6.63,5.61-6.56s5.69,2.76,5.53,6.72c-.14,3.77,0,7.55,0,11.33Z"/><path class="cls-1" d="M16.39,68C6.71,68.09.7,63.09.39,53.61-.07,39.32.06,25,0,10.69,0,7,1.5,4.06,5.72,4.19S11.65,7.33,11.21,11c-.65,5.39,1.57,6.94,6.59,6.28a22.5,22.5,0,0,1,6.45.19A4,4,0,0,1,27.94,22a4,4,0,0,1-4.27,3.92c-3,0-6,.16-9,0-2.63-.16-3.47.82-3.42,3.39.15,7.4,0,14.8.16,22.2.16,5.83,4.32,8.53,9.91,6.68A19,19,0,0,0,24,56.76c2.57-1.35,5.31-2.78,7.45.39,2.35,3.47-.4,5.54-2.8,7.27C25,67,20.72,67.6,16.39,68Z"/><path class="cls-2" d="M327.52,69.08c-9.68.11-15.69-4.89-16-14.37-.46-14.29-.33-28.61-.39-42.91,0-3.75,1.49-6.64,5.72-6.51s5.93,3.14,5.49,6.77c-.65,5.39,1.57,6.94,6.59,6.29a22.16,22.16,0,0,1,6.45.18,4,4,0,0,1,3.69,4.52A4,4,0,0,1,334.79,27c-3,0-6,.16-9,0-2.63-.16-3.47.81-3.42,3.38.15,7.4,0,14.8.16,22.2.16,5.83,4.32,8.53,9.91,6.68a18.89,18.89,0,0,0,2.65-1.35c2.58-1.35,5.32-2.78,7.46.39,2.35,3.47-.4,5.54-2.8,7.28C336.17,68.13,331.85,68.7,327.52,69.08Z"/><path class="cls-1" d="M151.66,98.44a26.14,26.14,0,0,1-26.12-24.08c-.24-3.48.88-6.46,4.73-6.89s5.56,1.8,6.06,5.55c1.18,9,7.15,14.7,15.11,14.82,7.63.11,13.71-5.38,15.2-14.1.62-3.63,1.72-6.71,6-6.28,4.53.45,5.06,3.83,4.72,7.69A25.75,25.75,0,0,1,151.66,98.44Z"/><path class="cls-1" d="M40.32,42.15c0-6.24.12-12.48,0-18.72-.11-4.08,1.35-7.06,5.66-7,4,0,5.5,2.82,5.46,6.74q-.16,19,0,37.93C51.44,65,50,67.76,46,67.83c-4.36.08-5.78-2.88-5.68-7C40.43,54.63,40.32,48.39,40.32,42.15Z"/><path class="cls-2" d="M400.82,52c0,3,0,5.91,0,8.87s-1.27,5.41-4.14,6.74c-2.68,1.25-4.92.23-6.57-1.8-1.33-1.63-2.47-1.08-3.88-.4A27.8,27.8,0,0,1,368,67.5,22.69,22.69,0,0,1,349.9,46.75c-.46-9.13.37-17.73,8-24.25,8.41-7.22,18-7.64,27.9-4.29,9,3,12.75,10.16,14.23,19A99.3,99.3,0,0,1,400.82,52Zm-11.95-6.27a57.27,57.27,0,0,0,0-6.42C387.29,25.63,375,23.1,367.15,28.54c-5.49,3.79-6.59,9.85-6.27,16.29.45,9.32,5.68,13.91,16.18,13.77C386.87,58.48,388.93,56.23,388.87,45.68Z"/><path class="cls-2" d="M238.62,51.9c0,3,.7,10.3-1.39,12.39-1.74,1.74-8.37,3.24-17.48,3.77a66.67,66.67,0,0,1-14.93-.64C193.65,65.27,188.2,56.74,187.7,46.7c-.46-9.13.37-17.72,8-24.24,8.41-7.23,18-7.65,27.89-4.29,9,3,12.76,10.15,14.24,19A99.09,99.09,0,0,1,238.62,51.9Zm-12-6.27a59.75,59.75,0,0,0,0-6.42C225.09,25.58,212.83,23.05,205,28.5c-5.49,3.78-6.59,9.85-6.27,16.28.45,9.32,5.68,13.91,16.18,13.78C224.67,58.43,226.73,56.18,226.67,45.63Z"/><path class="cls-2" d="M229.17,49.43c0-14.31-.33-28.61-.39-42.92,0-3.75,1.49-6.64,5.72-6.51S239,2.83,239,6.43c0,5.43,0,15.5,0,18.07.15,7.39-.11,15.07-.11,22.47,0,8.76-.14,16.92-2.56,17.65C231.94,66,229.17,62.89,229.17,49.43Z"/></g></g></svg>
