<svg width="48" height="49" viewBox="0 0 48 49" fill="none" xmlns="http://www.w3.org/2000/svg">
<g clip-path="url(#clip0_326_194)">
<path d="M24.0002 0.681152C10.7664 0.681152 0 11.4476 0 24.6813C0 37.915 10.7664 48.6815 24.0002 48.6815C37.2339 48.6815 48.0003 37.915 48.0003 24.6813C48.0003 11.4476 37.2336 0.681152 24.0002 0.681152ZM24.0002 43.6266C13.5535 43.6266 5.05451 35.128 5.05451 24.6813C5.05451 14.2347 13.5535 5.73566 24.0002 5.73566C34.4468 5.73566 42.9458 14.2347 42.9458 24.6813C42.9458 35.128 34.4468 43.6266 24.0002 43.6266Z" fill="black"/>
<path d="M34.0079 24.9483H24.1688V16.4257C24.1688 15.0296 23.0376 13.8984 21.6415 13.8984C20.2455 13.8984 19.1143 15.0296 19.1143 16.4257V27.4755C19.1143 28.8716 20.2455 30.0028 21.6415 30.0028H34.0079C35.4039 30.0028 36.5351 28.8716 36.5351 27.4755C36.5351 26.0795 35.4036 24.9483 34.0079 24.9483Z" fill="#9229FF"/>
</g>
<defs>
<clipPath id="clip0_326_194">
<rect width="48" height="48" fill="white" transform="translate(0 0.681152)"/>
</clipPath>
</defs>
</svg>
