<svg width="58" height="57" viewBox="0 0 58 57" fill="none" xmlns="http://www.w3.org/2000/svg">
<path d="M13.5625 33.25C14.2251 33.25 14.8687 33.3284 15.4862 33.4732C15.0802 34.6821 14.8397 35.9404 14.7714 37.2139L14.75 38V38.2043C14.477 38.1066 14.193 38.0428 13.9045 38.0143L13.5625 38C12.6769 38 11.8231 38.3299 11.1675 38.9253C10.5119 39.5208 10.1016 40.339 10.0166 41.2205L10 41.5625V52.25H5.25V41.5625C5.25 39.3579 6.12578 37.2436 7.68467 35.6847C9.24357 34.1258 11.3579 33.25 13.5625 33.25ZM13.5625 19C15.1372 19 16.6474 19.6256 17.7609 20.7391C18.8744 21.8526 19.5 23.3628 19.5 24.9375C19.5 26.5122 18.8744 28.0224 17.7609 29.1359C16.6474 30.2494 15.1372 30.875 13.5625 30.875C11.9878 30.875 10.4776 30.2494 9.36405 29.1359C8.25056 28.0224 7.625 26.5122 7.625 24.9375C7.625 23.3628 8.25056 21.8526 9.36405 20.7391C10.4776 19.6256 11.9878 19 13.5625 19ZM13.5625 23.75C13.2476 23.75 12.9455 23.8751 12.7228 24.0978C12.5001 24.3205 12.375 24.6226 12.375 24.9375C12.375 25.2524 12.5001 25.5545 12.7228 25.7772C12.9455 25.9999 13.2476 26.125 13.5625 26.125C13.8774 26.125 14.1795 25.9999 14.4022 25.7772C14.6249 25.5545 14.75 25.2524 14.75 24.9375C14.75 24.6226 14.6249 24.3205 14.4022 24.0978C14.1795 23.8751 13.8774 23.75 13.5625 23.75Z" fill="black"/>
<path d="M19.5405 52.2921V37.9919C19.5078 35.2507 21.3393 28.4136 28.9261 28.4136C36.513 28.4136 38.475 35.2507 38.5077 37.9919V52.2921" stroke="#9229FF" stroke-width="4.2"/>
<circle cx="28.9996" cy="14.15" r="6.58312" stroke="#9229FF" stroke-width="4"/>
<circle cx="39.0195" cy="40.353" r="12.6225" fill="white" stroke="black" stroke-width="2"/>
<path d="M42.3593 34.2729H34.7593V44.913C34.7593 45.7524 35.4398 46.433 36.2793 46.433H42.3593" stroke="#9229FF" stroke-width="2" stroke-linecap="round" stroke-linejoin="round"/>
<path d="M43.1193 42.6328L45.3993 40.3528M45.3993 40.3528L43.1193 38.0728M45.3993 40.3528H37.7993" stroke="#9229FF" stroke-width="2" stroke-linecap="round" stroke-linejoin="round"/>
</svg>
