<svg width="57" height="51" viewBox="0 0 57 51" fill="none" xmlns="http://www.w3.org/2000/svg">
<path d="M13.0625 28.7114C13.7251 28.7114 14.3687 28.7924 14.9862 28.9422C14.5802 30.1921 14.3397 31.4931 14.2714 32.8097L14.25 33.6225V33.8336C13.977 33.7326 13.693 33.6667 13.4045 33.6372L13.0625 33.6225C12.1769 33.6225 11.3231 33.9636 10.6675 34.5792C10.0119 35.1948 9.60164 36.0408 9.51662 36.9522L9.5 37.3058V48.3558H4.75V37.3058C4.75 35.0264 5.62578 32.8404 7.18467 31.2286C8.74357 29.6168 10.8579 28.7114 13.0625 28.7114ZM13.0625 13.978C14.6372 13.978 16.1474 14.6248 17.2609 15.7761C18.3744 16.9273 19 18.4888 19 20.1169C19 21.7451 18.3744 23.3065 17.2609 24.4578C16.1474 25.609 14.6372 26.2558 13.0625 26.2558C11.4878 26.2558 9.97755 25.609 8.86405 24.4578C7.75056 23.3065 7.125 21.7451 7.125 20.1169C7.125 18.4888 7.75056 16.9273 8.86405 15.7761C9.97755 14.6248 11.4878 13.978 13.0625 13.978ZM13.0625 18.8891C12.7476 18.8891 12.4455 19.0185 12.2228 19.2487C12.0001 19.479 11.875 19.7913 11.875 20.1169C11.875 20.4425 12.0001 20.7548 12.2228 20.9851C12.4455 21.2153 12.7476 21.3447 13.0625 21.3447C13.3774 21.3447 13.6795 21.2153 13.9022 20.9851C14.1249 20.7548 14.25 20.4425 14.25 20.1169C14.25 19.7913 14.1249 19.479 13.9022 19.2487C13.6795 19.0185 13.3774 18.8891 13.0625 18.8891Z" fill="black"/>
<path d="M19.04 48.3994V33.6141C19.0073 30.78 20.8388 23.7109 28.4257 23.7109C36.0125 23.7109 37.9745 30.78 38.0072 33.6141V48.3994" stroke="#9229FF" stroke-width="4.2"/>
<path d="M28.4996 15.7022C32.1977 15.7022 35.0828 12.6219 35.0828 8.96367C35.0828 5.30547 32.1977 2.2251 28.4996 2.2251C24.8015 2.2251 21.9165 5.30547 21.9165 8.96367C21.9165 12.6219 24.8015 15.7022 28.4996 15.7022Z" stroke="#9229FF" stroke-width="4"/>
<path d="M52.2988 36.6923C52.2988 43.9049 46.652 49.6946 39.7559 49.6946C32.8597 49.6946 27.2129 43.9049 27.2129 36.6923C27.2129 29.4796 32.8597 23.6899 39.7559 23.6899C46.652 23.6899 52.2988 29.4796 52.2988 36.6923Z" fill="white" stroke="black" stroke-width="2"/>
<path d="M33.0825 37.3472L36.8852 41.2789L45.7582 32.105" stroke="#9229FF" stroke-width="3" stroke-linecap="round"/>
</svg>
