<svg width="52" height="52" viewBox="0 0 52 52" fill="none" xmlns="http://www.w3.org/2000/svg">
<g clip-path="url(#clip0_339_54)">
<path d="M34.256 34.3158C33.8287 34.7017 33.2492 34.9186 32.6449 34.9186C32.0406 34.9186 31.4611 34.7017 31.0338 34.3158L26.0002 29.1194L20.9666 34.3141C20.7557 34.5078 20.5044 34.6618 20.2272 34.7673C19.95 34.8728 19.6525 34.9277 19.3517 34.9288C19.0509 34.9299 18.7529 34.8772 18.4748 34.7737C18.1966 34.6703 17.9439 34.5181 17.7313 34.326C17.5186 34.1339 17.3501 33.9057 17.2356 33.6545C17.121 33.4033 17.0627 33.1341 17.0639 32.8624C17.0652 32.5907 17.1259 32.322 17.2427 32.0716C17.3595 31.8213 17.53 31.5943 17.7444 31.4038L22.9812 26.0015L17.7425 20.5958C17.5281 20.4053 17.3576 20.1783 17.2408 19.928C17.124 19.6776 17.0633 19.4088 17.062 19.1372C17.0608 18.8655 17.1191 18.5963 17.2337 18.3451C17.3482 18.0939 17.5167 17.8657 17.7294 17.6736C17.9421 17.4815 18.1947 17.3293 18.4729 17.2259C18.751 17.1224 19.049 17.0697 19.3498 17.0708C19.6506 17.0719 19.9481 17.1268 20.2253 17.2323C20.5025 17.3378 20.7538 17.4918 20.9647 17.6855L26.0002 22.8836L31.0338 17.6855C31.2447 17.4918 31.496 17.3378 31.7732 17.2323C32.0504 17.1268 32.348 17.0719 32.6487 17.0708C32.9495 17.0697 33.2475 17.1224 33.5257 17.2259C33.8038 17.3293 34.0565 17.4815 34.2691 17.6736C34.4818 17.8657 34.6503 18.0939 34.7648 18.3451C34.8794 18.5963 34.9377 18.8655 34.9365 19.1372C34.9353 19.4088 34.8745 19.6776 34.7577 19.928C34.6409 20.1783 34.4704 20.4053 34.256 20.5958L29.0192 26.0015L34.256 31.4038C34.4678 31.5949 34.6359 31.8219 34.7505 32.0717C34.8652 32.3215 34.9242 32.5893 34.9242 32.8598C34.9242 33.1302 34.8652 33.398 34.7505 33.6479C34.6359 33.8977 34.4678 34.1247 34.256 34.3158V34.3158Z" fill="#9229FF"/>
<path d="M26 50.5C39.531 50.5 50.5 39.531 50.5 26C50.5 12.469 39.531 1.5 26 1.5C12.469 1.5 1.5 12.469 1.5 26C1.5 39.531 12.469 50.5 26 50.5Z" stroke="black" stroke-width="3" stroke-linecap="square"/>
</g>
<defs>
<clipPath id="clip0_339_54">
<rect width="52" height="52" fill="white"/>
</clipPath>
</defs>
</svg>
