<svg width="31" height="50" viewBox="0 0 31 50" fill="none" xmlns="http://www.w3.org/2000/svg">
<path d="M21.8324 25.0002C28.649 17.5015 30.6522 2.65703 30.7389 1.99009C30.8045 1.48728 30.6499 0.980522 30.3151 0.599537C29.9807 0.218411 29.4982 0 28.9909 0H2.3417C1.83452 0 1.35201 0.218411 1.01756 0.599396C0.682678 0.980522 0.528422 1.48714 0.593847 1.98995C0.680562 2.65688 2.68391 17.5015 9.50033 25.0001C2.68391 32.4987 0.680562 47.3434 0.593987 48.0103C0.528563 48.5129 0.682819 49.0196 1.0177 49.4007C1.35215 49.7816 1.83466 50 2.34184 50H28.9911C29.4984 50 29.9809 49.7816 30.3152 49.4007C30.6501 49.0196 30.8046 48.5129 30.739 48.0103C30.652 47.3434 28.6488 32.4987 21.8324 25.0002ZM4.41667 46.475C5.24054 41.9786 7.73372 31.0669 13.1682 26.3286C13.5521 25.9937 13.7724 25.5092 13.7724 25.0001C13.7724 24.4908 13.552 24.0063 13.1682 23.6716C7.7333 18.9328 5.24012 8.02043 4.41667 3.52503H26.9164C26.0926 8.02142 23.5993 18.9332 18.165 23.6716C17.781 24.0063 17.5608 24.4908 17.5608 25.0001C17.5608 25.5092 17.781 25.9937 18.165 26.3286C23.5993 31.0668 26.0928 41.9789 26.9164 46.475H4.41667Z" fill="black"/>
<path d="M15.6667 28.6719C13.3785 28.6719 11.4856 30.9825 9.70898 35.9436C8.59098 39.0655 7.9122 42.134 7.88386 42.2631C7.76922 42.7845 7.89739 43.3298 8.23185 43.7459C8.5663 44.162 9.07151 44.4038 9.60534 44.4038L21.7282 44.4035C22.2622 44.4035 22.7671 44.1616 23.1018 43.7455C23.4361 43.3296 23.5642 42.7844 23.4497 42.2627C23.4213 42.1337 22.7424 39.0651 21.6247 35.9434C19.8478 30.9823 17.9547 28.6719 15.6667 28.6719ZM19.4699 40.8783L11.8633 40.8785C12.1194 39.9352 12.4596 38.7732 12.8663 37.5915C14.3052 33.4121 15.3716 32.4353 15.6667 32.2334C15.9614 32.4349 17.0237 33.4077 18.4575 37.5638C18.8679 38.7529 19.2113 39.9262 19.4699 40.8783Z" fill="#9229FF"/>
</svg>
